<svg id="Layer_1" data-name="Layer 1" xmlns="http://www.w3.org/2000/svg" viewBox="0 0 500 500"><defs><style>.cls-1{fill:#231f20;}.cls-2{fill:#f2f4f7;}</style></defs><rect class="cls-1" width="500" height="500"/><path class="cls-2" d="M190,422.61l31.74-37.83c7.67-8.65,13.45-14.89,21-22.56v-.56H194V326.43H298.07V353l-29.6,35.53c-7.35,8.41-14.33,16.62-22,23.73v.56H300.4v35.23H190Z" transform="translate(-45.39 -70.61)"/><path class="cls-2" d="M355.43,326.43H400.8V448.07H355.43Z" transform="translate(-45.39 -70.61)"/><path class="cls-2" d="M192.12,193.15H237.5V314.76H192.12Z" transform="translate(-45.39 -70.61)"/><path class="cls-2" d="M397.64,273.36c0,17.1.5,31.07,1,41.4H359.56l-2-16h-.88c-4.47,6.54-15.34,18.72-37.52,18.72-27.59,0-43.81-17.5-43.81-52.66V193.15h45.38v64.57c0,15.51,5.15,24,15.84,24,8.48,0,12.81-5.74,14.57-10.31a15.11,15.11,0,0,0,1.13-6.62V193.15h45.38Z" transform="translate(-45.39 -70.61)"/></svg>