<svg id="Layer_1" data-name="Layer 1" xmlns="http://www.w3.org/2000/svg" viewBox="0 0 22.88 24.26"><defs><style>.cls-1{fill:#f2f4f7;}.cls-2{fill:#231f20;}</style></defs><rect class="cls-1" width="22.88" height="24.26"/><path class="cls-2" d="M11.7,21.5l1.45-1.84c.35-.42.62-.72,1-1.09v0H11.89V16.83h4.76v1.29l-1.36,1.73c-.33.4-.65.8-1,1.15v0h2.47v1.71H11.7Z" transform="translate(-5.08 -4.42)"/><path class="cls-2" d="M19.27,16.83h2.08v5.9H19.27Z" transform="translate(-5.08 -4.42)"/><path class="cls-2" d="M11.8,10.37h2.08v5.9H11.8Z" transform="translate(-5.08 -4.42)"/><path class="cls-2" d="M21.21,14.26c0,.83,0,1.51,0,2H19.46l-.09-.78h0a1.94,1.94,0,0,1-1.72.91c-1.26,0-2-.85-2-2.56V10.37h2.07V13.5c0,.75.24,1.16.73,1.16a.71.71,0,0,0,.67-.5.8.8,0,0,0,.05-.32V10.37h2.08Z" transform="translate(-5.08 -4.42)"/></svg>
